Coordinates
version=1
nRows=9
nColumns=24
inDegrees=yes

Units are S.I. units (second, meters, Newtons, ...)
Angles are in degrees.

endheader
time	pelvis_tilt	pelvis_list	pelvis_rotation	pelvis_tx	pelvis_ty	pelvis_tz	hip_flexion_r	hip_adduction_r	hip_rotation_r	knee_angle_r	ankle_angle_r	subtalar_angle_r	mtp_angle_r	hip_flexion_l	hip_adduction_l	hip_rotation_l	knee_angle_l	ankle_angle_l	subtalar_angle_l	mtp_angle_l	lumbar_extension	lumbar_bending	lumbar_rotation
      5.43000000	     -1.95506797	      5.61729819	      4.22221925	     -0.24196963	      0.86461023	     -0.21422789	     22.75840240	     -4.20234113	     -7.45955856	     -3.87444638	      7.82871457	     10.24276651	      0.00000000	    -12.62197188	     11.39946989	     16.08744697	    -14.06164111	     16.99352995	     -9.30641195	      0.00000000	     -7.10233453	     -4.72821003	    167.37115721
      5.44000000	     -1.86503786	      5.45217881	      3.95069259	     -0.22955746	      0.86447608	     -0.21412286	     22.65573597	     -3.86748825	     -5.90220985	     -5.01729593	      6.86334976	      9.13812904	      0.00000000	    -12.55298811	     11.30956706	     14.83999682	    -15.80946742	     16.41567473	     -7.90850428	      0.00000000	     -6.99758477	     -4.24916406	    168.01475786
      5.45000000	     -1.66359015	      5.23265574	      3.64673618	     -0.21702608	      0.86477205	     -0.21398943	     22.42826947	     -3.45933466	     -4.51912726	     -6.28230345	      5.83038580	      8.02462463	      0.00000000	    -12.43709040	     11.13816226	     13.33726950	    -17.79124035	     15.53984929	     -6.39410710	      0.00000000	     -7.04514710	     -3.67387885	    168.68503084
      5.46000000	     -1.38580219	      4.99174139	      3.26337590	     -0.20451801	      0.86541013	     -0.21378558	     22.15255988	     -3.00457947	     -3.32781976	     -7.66731451	      4.89962259	      7.06667674	      0.00000000	    -12.19792923	     10.92406107	     11.56000981	    -20.04682914	     14.34333446	     -4.79004451	      0.00000000	     -7.22811967	     -3.04456704	    169.44941797
      5.47000000	     -1.14381790	      4.70213122	      2.98166513	     -0.19187349	      0.86635217	     -0.21358573	     21.74760771	     -2.49230355	     -1.88987666	     -8.82917918	      3.81050623	      5.36488415	      0.00000000	    -11.71908602	     10.58294926	      9.71646484	    -22.59088431	     12.70690047	     -3.20843680	      0.00000000	     -7.34012938	     -2.38882255	    170.08132441
      5.48000000	     -0.85863404	      4.40827423	      2.68257265	     -0.17940970	      0.86755731	     -0.21337403	     21.30393325	     -1.97383779	     -0.70589123	    -10.02040970	      3.07757231	      3.93737759	      0.00000000	    -11.04506269	     10.18082198	      7.75959891	    -25.44166149	     10.70767131	     -1.67577679	      0.00000000	     -7.57345632	     -1.72560044	    170.71128360
      5.49000000	     -0.58342786	      4.10944735	      2.45031891	     -0.16713477	      0.86893572	     -0.21319379	     20.80252140	     -1.45977035	      0.39399257	    -11.11425281	      2.64194909	      2.48908160	      0.00000000	    -10.12356310	      9.69526527	      5.86051993	    -28.59468901	      8.31899739	     -0.30735020	      0.00000000	     -7.84508559	     -1.08316329	    171.24651672
      5.50000000	     -0.32805358	      3.77534467	      2.31246371	     -0.15510683	      0.87040112	     -0.21308898	     20.26149657	     -0.93969182	      1.24427681	    -12.11932107	      2.57905485	      1.26009934	      0.00000000	     -8.94650267	      9.08632505	      4.08840496	    -32.03559566	      5.65363686	      0.91612820	      0.00000000	     -8.14468083	     -0.42173500	    171.68279181
      5.51000000	     -0.15786963	      3.42497508	      2.27001269	     -0.14325086	      0.87183871	     -0.21304967	     19.68670076	     -0.41534334	      2.11322247	    -12.92080138	      2.71144284	     -0.05901020	      0.00000000	     -7.49236271	      8.40249253	      2.54140774	    -35.66376444	      2.58395369	      1.64940948	      0.00000000	     -8.34150276	      0.21560811	    171.97897536
